<svg width="58" height="58" viewBox="0 0 58 58" fill="none" xmlns="http://www.w3.org/2000/svg">
<path d="M0.497816 47.8901L10.2975 38.0904L5.49136 33.2843C5.07494 32.8679 4.90377 32.2656 5.03914 31.6924C5.17451 31.1192 5.59683 30.657 6.15553 30.4707L34.9922 20.8585C35.6026 20.6549 36.276 20.8139 36.731 21.269C37.1862 21.7242 37.3451 22.3973 37.1416 23.0079L27.5293 51.8446C27.343 52.4033 26.8808 52.8257 26.3077 52.961C25.7346 53.0966 25.1322 52.9253 24.7157 52.5088L19.9096 47.7027L10.1098 57.5023C9.77803 57.8341 9.34315 58.0001 8.90838 58.0001C8.4736 58.0001 8.0386 57.8342 7.70691 57.5023L0.497701 50.2931C-0.1659 49.6295 -0.165899 48.5537 0.497816 47.8901ZM8.90849 53.8977L18.7082 44.0981C19.3717 43.4345 20.4478 43.4345 21.1113 44.0981L25.1748 48.1616L32.8429 25.1573L9.83853 32.8254L13.902 36.8889C14.5651 37.5518 14.5656 38.6284 13.902 39.2919L4.10231 49.0916L8.90849 53.8977Z" fill="#D45C1E"/>
<path d="M35.9102 13.5937C34.9717 13.5937 34.2109 12.8329 34.2109 11.8945V1.69922C34.2109 0.760795 34.9717 0 35.9102 0C36.8486 0 37.6094 0.760795 37.6094 1.69922V11.8945C37.6094 12.8329 36.8486 13.5937 35.9102 13.5937Z" fill="#D45C1E"/>
<path d="M49.1272 6.46987C49.7907 5.80627 50.8666 5.80627 51.5303 6.46987C52.1939 7.13347 52.1939 8.2093 51.5303 8.8729L44.321 16.0821C43.6575 16.7457 42.5814 16.7457 41.918 16.0821C41.2544 15.4185 41.2544 14.3427 41.918 13.6791L49.1272 6.46987Z" fill="#D45C1E"/>
<path d="M44.321 28.0976L51.5303 35.3068C52.1939 35.9704 52.1939 37.0462 51.5303 37.7098C50.8668 38.3734 49.7907 38.3734 49.1272 37.7098L41.918 30.5006C41.2544 29.837 41.2544 28.7612 41.918 28.0976C42.5816 27.434 43.6575 27.434 44.321 28.0976Z" fill="#D45C1E"/>
<path d="M27.4994 16.0821L20.2902 8.8729C19.6266 8.2093 19.6266 7.13347 20.2902 6.46987C20.9537 5.80627 22.0296 5.80627 22.6932 6.46987L29.9024 13.6791C30.566 14.3427 30.566 15.4185 29.9024 16.0821C29.2389 16.7457 28.1629 16.7457 27.4994 16.0821Z" fill="#D45C1E"/>
<path d="M44.4063 22.0898C44.4063 21.1514 45.1671 20.3906 46.1055 20.3906H56.3008C57.2392 20.3906 58 21.1514 58 22.0898C58 23.0283 57.2392 23.7891 56.3008 23.7891H46.1055C45.1671 23.7891 44.4063 23.0283 44.4063 22.0898Z" fill="#D45C1E"/>
</svg>
